<svg version="1.1" id="Layer_1" xmlns="http://www.w3.org/2000/svg" xmlns:xlink="http://www.w3.org/1999/xlink" x="0px" y="0px"
	 width="100%" viewBox="0 0 192 182" enable-background="new 0 0 192 182" xml:space="preserve">
<path fill="#FEFDFB" opacity="1.000000" stroke="none" 
	d="
M76.000000,183.000000 
	C51.015545,183.000000 26.031086,183.000000 1.023315,183.000000 
	C1.023315,122.386604 1.023315,61.773193 1.023315,1.079893 
	C64.906860,1.079893 128.813843,1.079893 192.860413,1.079893 
	C192.860413,61.666458 192.860413,122.333176 192.860413,183.000000 
	C168.907516,183.000000 144.922424,183.000000 120.561111,182.769363 
	C120.470551,182.131729 120.756195,181.724747 121.395088,181.182159 
	C131.846405,174.785233 141.944458,168.523880 152.389862,162.183807 
	C159.154831,157.729187 165.572479,153.353271 172.337875,148.928131 
	C175.273178,147.369858 177.941132,145.981873 180.432037,144.327347 
	C186.173004,140.514069 187.845596,135.876923 186.271240,128.395676 
	C186.025131,126.560944 185.737595,125.158730 185.487015,123.549728 
	C185.455719,123.048508 185.290833,122.825310 185.148407,122.538742 
	C185.267471,122.404114 185.101974,122.085014 185.186722,121.642220 
	C184.166870,114.124908 183.062271,107.050392 182.004944,99.553223 
	C181.401901,92.375572 180.307510,85.628311 180.189407,78.864014 
	C179.902374,62.425758 180.067947,45.979580 180.053436,29.536594 
	C180.049042,24.554213 180.293503,19.557043 179.989807,14.593212 
	C179.618225,8.519883 174.902145,6.074872 169.845383,9.393448 
	C165.993546,11.921263 162.541611,15.058442 158.960922,17.944258 
	C159.010071,17.963997 158.926346,17.898678 158.610519,17.963276 
	C157.167068,18.994417 156.039444,19.960960 154.960419,20.946884 
	C155.009003,20.966267 154.926498,20.901539 154.583527,20.981512 
	C149.644196,24.656107 145.047852,28.250729 140.306046,31.849312 
	C140.160568,31.853277 140.002228,32.097496 139.719330,32.168327 
	C138.908371,32.787445 138.380295,33.335724 137.893875,33.902611 
	C137.935532,33.921219 137.934814,33.829979 137.642426,33.860149 
	C136.922409,34.265987 136.494797,34.641655 135.819855,35.064659 
	C135.362625,35.361031 135.152740,35.610058 134.690552,35.922642 
	C134.205002,36.234154 133.971786,36.482105 133.495834,36.799377 
	C133.034271,37.116699 132.815460,37.364708 132.300537,37.705574 
	C131.643372,37.998295 131.282303,38.198166 130.501694,38.301460 
	C123.711815,37.446381 117.341476,36.687878 110.701889,35.683426 
	C108.962814,35.317116 107.492989,35.196754 105.633499,34.940468 
	C101.826973,34.547424 98.410103,34.290310 94.577911,33.934124 
	C91.429047,34.240543 88.695518,34.646038 85.569016,35.009586 
	C83.450500,35.293720 81.724968,35.619793 79.560410,35.898285 
	C73.089249,36.652431 67.057098,37.454166 60.690041,38.130333 
	C55.924568,34.939308 51.494003,31.873850 46.934715,28.560558 
	C46.206066,27.872084 45.606140,27.431440 44.896740,26.699726 
	C44.196579,26.259539 43.605892,26.110422 42.860344,25.664587 
	C35.867004,20.200006 29.088577,14.949778 22.163214,9.901105 
	C18.984631,7.583880 15.595572,6.405057 12.653301,11.101446 
	C11.971572,13.807160 11.257132,16.245211 11.244176,18.686985 
	C11.145156,37.349236 11.384635,56.015400 11.089324,74.673553 
	C10.950306,83.456863 9.865232,92.225212 9.111086,101.406799 
	C8.067466,108.526634 7.121614,115.240013 6.028397,122.317825 
	C5.591525,124.763832 5.302020,126.845383 4.857805,129.277084 
	C3.615227,134.392578 4.648056,138.806534 8.272578,141.928604 
	C11.483193,144.694138 15.405732,146.633179 19.166710,149.240326 
	C26.204742,153.797562 33.090046,158.051559 40.117126,162.593964 
	C47.002769,167.379654 54.254566,171.291412 60.328934,176.560516 
	C65.140800,180.734497 69.898438,182.669235 75.999588,182.171234 
	C76.000435,182.631653 76.000221,182.815826 76.000000,183.000000 
z"/>
<path fill="#FDF4E2" opacity="1.000000" stroke="none" 
	d="
M76.468658,183.000000 
	C76.000221,182.815826 76.000435,182.631653 76.323761,181.921906 
	C83.086105,181.279114 89.525337,181.161926 96.434685,181.092834 
	C104.950478,181.199875 112.996155,181.258804 121.041832,181.317749 
	C120.756195,181.724747 120.470551,182.131729 120.092453,182.769363 
	C105.645775,183.000000 91.291542,183.000000 76.468658,183.000000 
z"/>
<path fill="#EE8E32" opacity="1.000000" stroke="none" 
	d="
M185.101974,122.085014 
	C185.101974,122.085014 185.267471,122.404114 185.220764,122.722260 
	C185.267792,123.278450 185.359787,123.517151 185.450058,123.756516 
	C185.737595,125.158730 186.025131,126.560944 185.787323,128.435959 
	C174.947250,128.908752 164.632553,128.908752 154.317841,128.908752 
	C154.167831,129.441238 154.017807,129.973740 153.867783,130.506226 
	C157.003006,133.386276 160.263153,136.143890 163.238815,139.180298 
	C166.300415,142.304367 169.084564,145.700348 171.990112,148.977356 
	C165.572479,153.353271 159.154831,157.729187 152.270477,161.851730 
	C147.192612,156.383148 142.346512,151.354294 138.026382,145.908234 
	C131.833618,138.101501 124.947289,132.164185 114.053802,133.925522 
	C112.755363,134.135452 111.397217,133.976181 109.607071,133.965378 
	C104.786263,133.670807 100.425133,133.398926 96.040192,132.650940 
	C95.983971,116.161682 95.951553,100.148521 96.148972,84.003403 
	C96.600395,83.602959 96.821991,83.334473 97.365692,82.860489 
	C98.128090,81.465950 98.754951,80.310928 98.978981,79.082451 
	C100.684128,69.731895 102.310577,60.366974 104.404602,51.004219 
	C106.914551,51.004150 108.981430,51.006393 111.107040,51.420715 
	C111.606628,57.813507 112.047485,63.794224 112.573479,70.929840 
	C119.478523,65.954659 119.977180,58.317051 124.394882,52.994652 
	C125.831039,52.359421 126.883522,51.715969 127.954613,51.105145 
	C129.133636,50.432758 130.529846,49.068672 131.464920,49.327919 
	C132.501709,49.615368 133.271179,51.324718 133.879517,52.552441 
	C134.350800,53.503551 134.394943,54.666306 134.572845,55.478714 
	C138.894119,57.211945 140.982956,54.631443 143.334106,52.121956 
	C152.040436,59.811943 160.448685,67.352455 169.119843,75.128754 
	C169.119843,64.316536 169.119843,54.179653 169.381317,43.725388 
	C169.715576,39.276619 169.788361,35.145233 169.900269,30.594612 
	C169.939377,28.300951 169.939377,26.426523 169.939377,24.552097 
	C169.542786,24.392805 169.146194,24.233513 168.749588,24.074221 
	C167.502655,25.399269 166.255707,26.724318 164.671219,28.086403 
	C161.565063,30.115629 158.796448,32.107819 155.876831,33.776535 
	C155.250275,32.159504 154.394485,30.871159 154.376648,29.571318 
	C154.337051,26.684450 154.717377,23.791821 154.926498,20.901539 
	C154.926498,20.901539 155.009003,20.966267 155.335190,20.966715 
	C156.749695,19.944336 157.838028,18.921507 158.926346,17.898678 
	C158.926346,17.898678 159.010071,17.963997 159.346451,17.964409 
	C162.459595,17.688503 165.387375,16.738621 167.972214,17.318233 
	C170.765701,17.944632 173.387894,19.793379 175.785172,21.523991 
	C176.889938,22.321526 177.826752,24.079170 177.897705,25.450232 
	C178.150467,30.334051 177.999619,35.238811 177.999817,40.135643 
	C178.000366,53.587147 177.687958,67.049019 178.134384,80.485695 
	C178.350891,87.002487 179.988556,93.472069 180.668396,100.116226 
	C173.458649,103.573418 166.531097,106.812912 159.693314,110.231956 
	C158.199677,110.978806 157.026581,112.366669 154.779755,114.225502 
	C165.916382,117.112114 175.509186,119.598564 185.101974,122.085014 
M141.033279,110.349335 
	C141.031616,107.533516 141.143433,104.711983 141.002106,101.903198 
	C140.781418,97.517532 138.381241,94.832985 134.079590,94.086617 
	C129.674271,93.322250 126.006821,95.308220 125.276459,99.415489 
	C124.312027,104.839119 124.269524,110.557190 124.765808,116.064430 
	C125.099823,119.770927 128.028442,121.942757 132.157104,122.054779 
	C138.479507,122.226326 140.936401,119.348000 141.033279,110.349335 
z"/>
<path fill="#F4A74A" opacity="1.000000" stroke="none" 
	d="
M95.919136,84.135368 
	C95.951553,100.148521 95.983971,116.161682 95.787704,132.815948 
	C93.368820,133.633179 91.178612,133.809296 88.552078,133.946091 
	C85.801086,133.941833 83.486412,133.976868 80.697418,134.001617 
	C73.280342,133.875778 65.741600,132.840378 60.479397,138.311523 
	C53.199081,145.880920 46.769333,154.268402 39.975349,162.305557 
	C33.090046,158.051559 26.204742,153.797562 19.199408,148.907135 
	C24.908396,141.840851 30.737417,135.410980 36.615551,128.926941 
	C26.652525,128.926941 15.832519,128.926941 5.012513,128.926941 
	C5.302020,126.845383 5.591525,124.763832 6.296922,122.275681 
	C7.140425,121.574295 7.568037,121.279510 8.401178,120.979416 
	C17.870331,118.796951 26.933954,116.619789 35.997578,114.442627 
	C35.997337,113.697739 35.997097,112.952850 35.996857,112.207954 
	C31.677376,110.446625 27.357897,108.685287 22.874390,106.622093 
	C18.209860,104.546936 13.709357,102.773636 9.208855,101.000336 
	C9.865232,92.225212 10.950306,83.456863 11.089324,74.673553 
	C11.384635,56.015400 11.145156,37.349236 11.244176,18.686985 
	C11.257132,16.245211 11.971572,13.807160 12.671696,11.583693 
	C12.988283,32.720619 13.100505,53.642159 12.919633,74.561165 
	C12.878510,79.317322 14.017971,81.185844 18.875738,79.256058 
	C19.865408,78.862907 21.185890,79.062881 22.302958,79.267456 
	C32.293526,81.097069 33.365452,79.951889 30.578163,70.266830 
	C30.441990,69.793663 30.172888,69.358742 30.119616,68.616714 
	C37.267033,61.706131 44.260517,55.084850 51.432026,48.295025 
	C47.539169,44.876923 44.250465,41.989288 41.004135,38.740990 
	C42.102345,36.990044 43.267662,35.667831 44.185452,34.191711 
	C45.257557,32.467392 46.113640,30.608755 47.063446,28.808392 
	C51.494003,31.873850 55.924568,34.939308 60.684109,38.490318 
	C65.474739,48.247025 69.874649,57.549004 74.469261,66.753799 
	C75.107307,68.032059 76.705795,68.830910 77.859673,69.851692 
	C78.572075,68.368301 79.873138,66.896072 79.901497,65.399719 
	C80.087479,55.584675 79.998581,45.764420 79.999428,35.945869 
	C81.724968,35.619793 83.450500,35.293720 85.575562,35.440620 
	C87.841553,48.684734 89.700180,61.457020 91.579391,74.226280 
	C92.122482,77.916626 91.615471,82.084648 95.919136,84.135368 
M66.923378,105.698090 
	C66.916298,104.865623 66.951324,104.030312 66.895348,103.201149 
	C66.519653,97.635727 63.126476,93.935074 58.441936,93.955681 
	C53.129219,93.979050 50.175568,97.270287 49.989227,103.525131 
	C49.890102,106.852364 49.858311,110.187874 49.970993,113.513710 
	C50.147686,118.728500 53.030167,121.790932 57.810986,122.059593 
	C62.862381,122.343475 66.243423,119.473495 66.830414,114.107437 
	C67.100540,111.638031 66.908691,109.118080 66.923378,105.698090 
z"/>
<path fill="#FACA89" opacity="1.000000" stroke="none" 
	d="
M40.117123,162.593964 
	C46.769333,154.268402 53.199081,145.880920 60.479397,138.311523 
	C65.741600,132.840378 73.280342,133.875778 80.838898,134.289230 
	C85.892784,139.090881 90.330872,143.594650 94.902512,148.368790 
	C95.345406,148.892548 95.654732,149.145920 95.972916,149.842834 
	C95.976044,160.539169 95.970306,170.791946 95.964569,181.044739 
	C89.525337,181.161926 83.086105,181.279114 76.322693,181.645645 
	C69.898438,182.669235 65.140800,180.734497 60.328934,176.560516 
	C54.254566,171.291412 47.002769,167.379654 40.117123,162.593964 
z"/>
<path fill="#F7AF66" opacity="1.000000" stroke="none" 
	d="
M96.434685,181.092834 
	C95.970306,170.791946 95.976044,160.539169 96.247719,149.617859 
	C101.031357,143.962250 105.549049,138.975159 110.066750,133.988052 
	C111.397217,133.976181 112.755363,134.135452 114.053802,133.925522 
	C124.947289,132.164185 131.833618,138.101501 138.026382,145.908234 
	C142.346512,151.354294 147.192612,156.383148 151.923141,161.930450 
	C141.944458,168.523880 131.846405,174.785233 121.395088,181.182159 
	C112.996155,181.258804 104.950478,181.199875 96.434685,181.092834 
z"/>
<path fill="#F4A548" opacity="1.000000" stroke="none" 
	d="
M29.965685,68.906013 
	C30.172888,69.358742 30.441990,69.793663 30.578163,70.266830 
	C33.365452,79.951889 32.293526,81.097069 22.302958,79.267456 
	C21.185890,79.062881 19.865408,78.862907 18.875738,79.256058 
	C14.017971,81.185844 12.878510,79.317322 12.919633,74.561165 
	C13.100505,53.642159 12.988283,32.720619 12.963893,11.317753 
	C15.595572,6.405057 18.984631,7.583880 22.163214,9.901105 
	C29.088577,14.949778 35.867004,20.200006 43.019638,25.917875 
	C43.891273,26.642187 44.448742,26.816492 45.006214,26.990799 
	C45.606140,27.431440 46.206066,27.872084 46.934719,28.560558 
	C46.113640,30.608755 45.257557,32.467392 44.185452,34.191711 
	C43.267662,35.667831 42.102345,36.990044 40.700397,38.586403 
	C34.543709,34.257599 28.733130,29.722717 21.947231,24.426647 
	C21.947231,41.967522 21.947231,58.130760 21.947231,74.927834 
	C25.204262,72.481819 27.584972,70.693916 29.965685,68.906013 
z"/>
<path fill="#DC6E23" opacity="1.000000" stroke="none" 
	d="
M4.857805,129.277084 
	C15.832519,128.926941 26.652525,128.926941 36.615551,128.926941 
	C30.737417,135.410980 24.908396,141.840851 19.046680,148.603912 
	C15.405732,146.633179 11.483193,144.694138 8.272578,141.928604 
	C4.648056,138.806534 3.615227,134.392578 4.857805,129.277084 
z"/>
<path fill="#D36017" opacity="1.000000" stroke="none" 
	d="
M172.337875,148.928131 
	C169.084564,145.700348 166.300415,142.304367 163.238815,139.180298 
	C160.263153,136.143890 157.003006,133.386276 153.867783,130.506226 
	C154.017807,129.973740 154.167831,129.441238 154.317841,128.908752 
	C164.632553,128.908752 174.947250,128.908752 185.745895,128.868469 
	C187.845596,135.876923 186.173004,140.514069 180.432037,144.327347 
	C177.941132,145.981873 175.273178,147.369858 172.337875,148.928131 
z"/>
<path fill="#DD7125" opacity="1.000000" stroke="none" 
	d="
M79.560410,35.898285 
	C79.998581,45.764420 80.087479,55.584675 79.901497,65.399719 
	C79.873138,66.896072 78.572075,68.368301 77.859673,69.851692 
	C76.705795,68.830910 75.107307,68.032059 74.469261,66.753799 
	C69.874649,57.549004 65.474739,48.247025 61.019020,38.615883 
	C67.057098,37.454166 73.089249,36.652431 79.560410,35.898285 
z"/>
<path fill="#D15E16" opacity="1.000000" stroke="none" 
	d="
M124.019409,53.000816 
	C119.977180,58.317051 119.478523,65.954659 112.573479,70.929840 
	C112.047485,63.794224 111.606628,57.813507 111.112122,50.970978 
	C111.029366,45.382568 111.000252,40.655972 110.971138,35.929375 
	C117.341476,36.687878 123.711815,37.446381 130.483063,38.455734 
	C130.883987,38.706589 130.942230,39.012070 130.830536,39.339123 
	C128.485687,44.111057 126.252556,48.555939 124.019409,53.000816 
z"/>
<path fill="#D46118" opacity="1.000000" stroke="none" 
	d="
M185.186722,121.642220 
	C175.509186,119.598564 165.916382,117.112114 154.779755,114.225502 
	C157.026581,112.366669 158.199677,110.978806 159.693314,110.231956 
	C166.531097,106.812912 173.458649,103.573418 180.912125,100.127380 
	C181.470276,99.985336 181.957672,99.975876 181.957672,99.975876 
	C183.062271,107.050392 184.166870,114.124908 185.186722,121.642220 
z"/>
<path fill="#E07024" opacity="1.000000" stroke="none" 
	d="
M96.148972,84.003403 
	C91.615471,82.084648 92.122482,77.916626 91.579391,74.226280 
	C89.700180,61.457020 87.841553,48.684734 85.968536,35.482563 
	C88.695518,34.646038 91.429047,34.240543 94.752220,34.312248 
	C95.559067,36.574665 95.956581,38.359085 95.964531,40.145245 
	C96.020645,52.738602 95.957138,65.332588 96.044617,77.925598 
	C96.056534,79.641289 96.695137,81.352631 97.043579,83.065987 
	C96.821991,83.334473 96.600395,83.602959 96.148972,84.003403 
z"/>
<path fill="#EB8C34" opacity="1.000000" stroke="none" 
	d="
M182.004944,99.553223 
	C181.957672,99.975876 181.470276,99.985336 181.226547,99.974182 
	C179.988556,93.472069 178.350891,87.002487 178.134384,80.485695 
	C177.687958,67.049019 178.000366,53.587147 177.999817,40.135643 
	C177.999619,35.238811 178.150467,30.334051 177.897705,25.450232 
	C177.826752,24.079170 176.889938,22.321526 175.785172,21.523991 
	C173.387894,19.793379 170.765701,17.944632 167.972214,17.318233 
	C165.387375,16.738621 162.459595,17.688503 159.297302,17.944668 
	C162.541611,15.058442 165.993546,11.921263 169.845383,9.393448 
	C174.902145,6.074872 179.618225,8.519883 179.989807,14.593212 
	C180.293503,19.557043 180.049042,24.554213 180.053436,29.536594 
	C180.067947,45.979580 179.902374,62.425758 180.189407,78.864014 
	C180.307510,85.628311 181.401901,92.375572 182.004944,99.553223 
z"/>
<path fill="#D35F16" opacity="1.000000" stroke="none" 
	d="
M97.365692,82.860489 
	C96.695137,81.352631 96.056534,79.641289 96.044617,77.925598 
	C95.957138,65.332588 96.020645,52.738602 95.964531,40.145245 
	C95.956581,38.359085 95.559067,36.574665 95.167549,34.411316 
	C98.410103,34.290310 101.826973,34.547424 105.567139,35.336357 
	C105.247482,40.914295 104.604507,45.960411 103.961533,51.006527 
	C102.310577,60.366974 100.684128,69.731895 98.978981,79.082451 
	C98.754951,80.310928 98.128090,81.465950 97.365692,82.860489 
z"/>
<path fill="#DC6E21" opacity="1.000000" stroke="none" 
	d="
M9.111086,101.406799 
	C13.709357,102.773636 18.209860,104.546936 22.806900,106.981255 
	C19.000483,110.220238 15.318271,113.276283 11.120018,115.214661 
	C8.125634,116.597214 7.784414,118.386536 7.995649,120.984726 
	C7.568037,121.279510 7.140425,121.574295 6.444288,121.911232 
	C7.121614,115.240013 8.067466,108.526634 9.111086,101.406799 
z"/>
<path fill="#EE8D32" opacity="1.000000" stroke="none" 
	d="
M140.002228,32.097496 
	C140.002228,32.097496 140.160568,31.853277 140.695389,31.872053 
	C142.998657,32.260239 145.023148,32.211273 146.474228,33.099289 
	C148.537033,34.361649 150.178284,36.312847 151.709167,38.140617 
	C147.635040,41.217926 143.851395,44.124359 139.702759,46.983589 
	C136.859894,45.964924 135.667526,44.595943 136.499985,41.580433 
	C136.856430,40.289257 135.553558,38.540001 134.994751,36.713631 
	C134.970871,36.238621 134.956863,36.048855 134.942871,35.859085 
	C135.152740,35.610058 135.362625,35.361031 136.119141,35.032070 
	C137.088806,34.578087 137.511810,34.204037 137.934814,33.829979 
	C137.934814,33.829979 137.935532,33.921219 138.222382,33.907112 
	C139.006897,33.294506 139.504562,32.695999 140.002228,32.097496 
z"/>
<path fill="#EB8C34" opacity="1.000000" stroke="none" 
	d="
M151.999649,37.969746 
	C150.178284,36.312847 148.537033,34.361649 146.474228,33.099289 
	C145.023148,32.211273 142.998657,32.260239 140.840866,31.868088 
	C145.047852,28.250729 149.644196,24.656107 154.583527,20.981512 
	C154.717377,23.791821 154.337051,26.684450 154.376648,29.571318 
	C154.394485,30.871159 155.250275,32.159504 155.735565,34.048538 
	C154.818115,35.744072 153.890945,36.844135 152.722778,37.951691 
	C152.481781,37.959183 151.999649,37.969746 151.999649,37.969746 
z"/>
<path fill="#EF9239" opacity="1.000000" stroke="none" 
	d="
M104.404602,51.004219 
	C104.604507,45.960411 105.247482,40.914295 105.956802,35.472286 
	C107.492989,35.196754 108.962814,35.317116 110.701889,35.683426 
	C111.000252,40.655972 111.029366,45.382568 111.053391,50.558899 
	C108.981430,51.006393 106.914551,51.004150 104.404602,51.004219 
z"/>
<path fill="#EB8C34" opacity="1.000000" stroke="none" 
	d="
M158.610519,17.963276 
	C157.838028,18.921507 156.749695,19.944336 155.286591,20.947334 
	C156.039444,19.960960 157.167068,18.994417 158.610519,17.963276 
z"/>
<path fill="#EB8C34" opacity="1.000000" stroke="none" 
	d="
M139.719330,32.168327 
	C139.504562,32.695999 139.006897,33.294506 138.180725,33.888508 
	C138.380295,33.335724 138.908371,32.787445 139.719330,32.168327 
z"/>
<path fill="#EB8C34" opacity="1.000000" stroke="none" 
	d="
M130.942230,39.012070 
	C130.942230,39.012070 130.883987,38.706589 130.902618,38.552315 
	C131.282303,38.198166 131.643372,37.998295 132.406601,37.807716 
	C132.808762,37.817005 133.019821,38.022400 132.838043,38.264587 
	C132.084915,38.675209 131.513565,38.843639 130.942230,39.012070 
z"/>
<path fill="#EB8C34" opacity="1.000000" stroke="none" 
	d="
M137.642426,33.860153 
	C137.511810,34.204037 137.088806,34.578087 136.366486,34.984734 
	C136.494797,34.641655 136.922409,34.265987 137.642426,33.860153 
z"/>
<path fill="#F4A74A" opacity="1.000000" stroke="none" 
	d="
M44.896740,26.699726 
	C44.448742,26.816492 43.891273,26.642187 43.174503,26.214594 
	C43.605892,26.110422 44.196579,26.259539 44.896740,26.699726 
z"/>
<path fill="#D46118" opacity="1.000000" stroke="none" 
	d="
M185.487015,123.549728 
	C185.359787,123.517151 185.267792,123.278450 185.101685,122.856888 
	C185.290833,122.825310 185.455719,123.048508 185.487015,123.549728 
z"/>
<path fill="#EB8C34" opacity="1.000000" stroke="none" 
	d="
M132.702698,37.714859 
	C132.815460,37.364708 133.034271,37.116699 133.573303,36.879993 
	C133.893509,36.891296 134.041519,37.056011 133.916931,37.261177 
	C133.586517,37.723454 133.328995,37.908806 133.019821,38.022400 
	C133.019821,38.022400 132.808762,37.817005 132.702698,37.714859 
z"/>
<path fill="#EB8C34" opacity="1.000000" stroke="none" 
	d="
M134.690552,35.922646 
	C134.956863,36.048855 134.970871,36.238621 134.753662,36.723240 
	C134.522476,37.018097 134.041519,37.056011 134.041519,37.056011 
	C134.041519,37.056011 133.893509,36.891296 133.816040,36.810677 
	C133.971786,36.482105 134.205002,36.234154 134.690552,35.922646 
z"/>
<path fill="#D56014" opacity="1.000000" stroke="none" 
	d="
M151.709167,38.140617 
	C151.999649,37.969746 152.481781,37.959183 152.924179,38.235428 
	C158.617661,40.355377 163.868759,42.199074 169.119843,44.042770 
	C169.119843,54.179653 169.119843,64.316536 169.119843,75.128754 
	C160.448685,67.352455 152.040436,59.811943 143.180893,51.830467 
	C141.842300,49.936596 140.955032,48.483692 140.067749,47.030792 
	C143.851395,44.124359 147.635040,41.217926 151.709167,38.140617 
z"/>
<path fill="#B4490A" opacity="1.000000" stroke="none" 
	d="
M141.032455,110.815170 
	C140.936401,119.348000 138.479507,122.226326 132.157104,122.054779 
	C128.028442,121.942757 125.099823,119.770927 124.765808,116.064430 
	C124.269524,110.557190 124.312027,104.839119 125.276459,99.415489 
	C126.006821,95.308220 129.674271,93.322250 134.079590,94.086617 
	C138.381241,94.832985 140.781418,97.517532 141.002106,101.903198 
	C141.143433,104.711983 141.031616,107.533516 141.032455,110.815170 
z"/>
<path fill="#D15B13" opacity="1.000000" stroke="none" 
	d="
M169.381317,43.725388 
	C163.868759,42.199074 158.617661,40.355377 153.165192,38.227936 
	C153.890945,36.844135 154.818115,35.744072 155.886551,34.372009 
	C158.796448,32.107819 161.565063,30.115629 164.714478,28.444008 
	C166.683914,29.514334 168.272522,30.264091 169.861145,31.013847 
	C169.788361,35.145233 169.715576,39.276619 169.381317,43.725388 
z"/>
<path fill="#ED8C30" opacity="1.000000" stroke="none" 
	d="
M139.702759,46.983589 
	C140.955032,48.483692 141.842300,49.936596 142.882797,51.680992 
	C140.982956,54.631443 138.894119,57.211945 134.572845,55.478714 
	C134.394943,54.666306 134.350800,53.503551 133.879517,52.552441 
	C133.271179,51.324718 132.501709,49.615368 131.464920,49.327919 
	C130.529846,49.068672 129.133636,50.432758 127.954613,51.105145 
	C126.883522,51.715969 125.831039,52.359421 124.394890,52.994652 
	C126.252556,48.555939 128.485687,44.111057 130.830536,39.339127 
	C131.513565,38.843639 132.084915,38.675209 132.838043,38.264587 
	C133.328995,37.908806 133.586517,37.723454 133.916931,37.261177 
	C134.041519,37.056011 134.522476,37.018097 134.763550,37.008492 
	C135.553558,38.540001 136.856430,40.289257 136.499985,41.580433 
	C135.667526,44.595943 136.859894,45.964924 139.702759,46.983589 
z"/>
<path fill="#B7490A" opacity="1.000000" stroke="none" 
	d="
M109.607071,133.965378 
	C105.549049,138.975159 101.031357,143.962250 96.238861,149.174332 
	C95.654732,149.145920 95.345406,148.892548 95.239777,148.097290 
	C95.515175,143.702026 96.078949,139.751526 95.349754,136.056198 
	C95.139168,134.989059 91.211792,134.655350 88.988396,133.985397 
	C91.178612,133.809296 93.368820,133.633179 95.811516,133.292053 
	C100.425133,133.398926 104.786263,133.670807 109.607071,133.965378 
z"/>
<path fill="#D56014" opacity="1.000000" stroke="none" 
	d="
M169.900269,30.594612 
	C168.272522,30.264091 166.683914,29.514334 165.052032,28.406971 
	C166.255707,26.724318 167.502655,25.399269 168.749588,24.074221 
	C169.146194,24.233513 169.542786,24.392805 169.939377,24.552097 
	C169.939377,26.426523 169.939377,28.300951 169.900269,30.594612 
z"/>
<path fill="#E07124" opacity="1.000000" stroke="none" 
	d="
M30.119616,68.616714 
	C27.584972,70.693916 25.204262,72.481819 21.947231,74.927834 
	C21.947231,58.130760 21.947231,41.967522 21.947231,24.426647 
	C28.733130,29.722717 34.543709,34.257599 40.658028,38.947067 
	C44.250465,41.989288 47.539169,44.876923 51.432026,48.295025 
	C44.260517,55.084850 37.267033,61.706131 30.119616,68.616714 
z"/>
<path fill="#B74C0B" opacity="1.000000" stroke="none" 
	d="
M66.924850,106.159569 
	C66.908691,109.118080 67.100540,111.638031 66.830414,114.107437 
	C66.243423,119.473495 62.862381,122.343475 57.810986,122.059593 
	C53.030167,121.790932 50.147686,118.728500 49.970993,113.513710 
	C49.858311,110.187874 49.890102,106.852364 49.989227,103.525131 
	C50.175568,97.270287 53.129219,93.979050 58.441936,93.955681 
	C63.126476,93.935074 66.519653,97.635727 66.895348,103.201149 
	C66.951324,104.030312 66.916298,104.865623 66.924850,106.159569 
z"/>
<path fill="#DF7225" opacity="1.000000" stroke="none" 
	d="
M8.401178,120.979416 
	C7.784414,118.386536 8.125634,116.597214 11.120018,115.214661 
	C15.318271,113.276283 19.000483,110.220238 22.970926,107.283119 
	C27.357897,108.685287 31.677376,110.446625 35.996857,112.207954 
	C35.997097,112.952850 35.997337,113.697739 35.997578,114.442627 
	C26.933954,116.619789 17.870331,118.796951 8.401178,120.979416 
z"/>
<path fill="#C55714" opacity="1.000000" stroke="none" 
	d="
M88.552078,133.946091 
	C91.211792,134.655350 95.139168,134.989059 95.349754,136.056198 
	C96.078949,139.751526 95.515175,143.702026 95.106216,147.826904 
	C90.330872,143.594650 85.892784,139.090881 81.313217,134.299515 
	C83.486412,133.976868 85.801086,133.941833 88.552078,133.946091 
z"/>
</svg>